<mxfile host="app.diagrams.net" modified="2023-09-19T16:44:14.367Z" agent="Mozilla/5.0 (Windows NT 10.0; Win64; x64) AppleWebKit/537.36 (KHTML, like Gecko) Chrome/116.0.0.0 Safari/537.36 OPR/102.0.0.0" etag="P4YVx_GoqfjN8mB93ASP" version="21.7.5" type="device">
  <diagram name="Page-1" id="J3AUHbUucc0vbvGvA6WI">
    <mxGraphModel dx="813" dy="450" grid="1" gridSize="10" guides="1" tooltips="1" connect="1" arrows="1" fold="1" page="1" pageScale="1" pageWidth="850" pageHeight="1100" math="0" shadow="0">
      <root>
        <mxCell id="0" />
        <mxCell id="1" parent="0" />
        <mxCell id="fnEIgWAX-s85td7BNk4T-1" value="Player" style="swimlane;fontStyle=1;align=center;verticalAlign=top;childLayout=stackLayout;horizontal=1;startSize=26;horizontalStack=0;resizeParent=1;resizeParentMax=0;resizeLast=0;collapsible=1;marginBottom=0;whiteSpace=wrap;html=1;" parent="1" vertex="1">
          <mxGeometry x="40" y="40" width="600" height="260" as="geometry" />
        </mxCell>
        <mxCell id="fnEIgWAX-s85td7BNk4T-2" value="+ Name: string&lt;br&gt;+ CurrentHitPoints: int&lt;br&gt;+ MaximumHitPoints: int&lt;br&gt;+ Gold: int&lt;br&gt;+ ExperiencePoints: int&lt;br&gt;+ Level: int&lt;br&gt;+ CurrentLocation: Location&lt;br&gt;+ QuestLog: List&amp;lt;Quest&amp;gt;" style="text;strokeColor=none;fillColor=none;align=left;verticalAlign=top;spacingLeft=4;spacingRight=4;overflow=hidden;rotatable=0;points=[[0,0.5],[1,0.5]];portConstraint=eastwest;whiteSpace=wrap;html=1;" parent="fnEIgWAX-s85td7BNk4T-1" vertex="1">
          <mxGeometry y="26" width="600" height="134" as="geometry" />
        </mxCell>
        <mxCell id="fnEIgWAX-s85td7BNk4T-3" value="" style="line;strokeWidth=1;fillColor=none;align=left;verticalAlign=middle;spacingTop=-1;spacingLeft=3;spacingRight=3;rotatable=0;labelPosition=right;points=[];portConstraint=eastwest;strokeColor=inherit;" parent="fnEIgWAX-s85td7BNk4T-1" vertex="1">
          <mxGeometry y="160" width="600" height="8" as="geometry" />
        </mxCell>
        <mxCell id="fnEIgWAX-s85td7BNk4T-4" value="- Player(string name,int currentHitPoints, int maximumHitPoints, int gold, int experiencePoints, int level)&lt;br&gt;&lt;u&gt;+ CreatePlayer(): Player&lt;/u&gt;&lt;br&gt;&lt;u&gt;+ CreatePlayerFromSaveFile(string xmlPlayerData): Player&lt;/u&gt;&lt;br&gt;+&amp;nbsp;AddExperiencePoints(int experiencePointsToAdd): void&lt;br&gt;+ SavePlayerData(): string" style="text;strokeColor=none;fillColor=none;align=left;verticalAlign=top;spacingLeft=4;spacingRight=4;overflow=hidden;rotatable=0;points=[[0,0.5],[1,0.5]];portConstraint=eastwest;whiteSpace=wrap;html=1;" parent="fnEIgWAX-s85td7BNk4T-1" vertex="1">
          <mxGeometry y="168" width="600" height="92" as="geometry" />
        </mxCell>
        <mxCell id="fnEIgWAX-s85td7BNk4T-10" value="PlayerInventory" style="swimlane;fontStyle=1;align=center;verticalAlign=top;childLayout=stackLayout;horizontal=1;startSize=26;horizontalStack=0;resizeParent=1;resizeParentMax=0;resizeLast=0;collapsible=1;marginBottom=0;whiteSpace=wrap;html=1;" parent="1" vertex="1">
          <mxGeometry x="40" y="330" width="360" height="120" as="geometry" />
        </mxCell>
        <mxCell id="fnEIgWAX-s85td7BNk4T-11" value="+ PlayerInventory: List&amp;lt;PlayerInventoryItem&amp;gt;" style="text;strokeColor=none;fillColor=none;align=left;verticalAlign=top;spacingLeft=4;spacingRight=4;overflow=hidden;rotatable=0;points=[[0,0.5],[1,0.5]];portConstraint=eastwest;whiteSpace=wrap;html=1;" parent="fnEIgWAX-s85td7BNk4T-10" vertex="1">
          <mxGeometry y="26" width="360" height="24" as="geometry" />
        </mxCell>
        <mxCell id="fnEIgWAX-s85td7BNk4T-12" value="" style="line;strokeWidth=1;fillColor=none;align=left;verticalAlign=middle;spacingTop=-1;spacingLeft=3;spacingRight=3;rotatable=0;labelPosition=right;points=[];portConstraint=eastwest;strokeColor=inherit;" parent="fnEIgWAX-s85td7BNk4T-10" vertex="1">
          <mxGeometry y="50" width="360" height="8" as="geometry" />
        </mxCell>
        <mxCell id="fnEIgWAX-s85td7BNk4T-13" value="+&amp;nbsp;PlayerInventory(List&amp;lt;PlayerInventoryItem&amp;gt; playerInventory)&lt;br&gt;+&amp;nbsp;AddItem(Item itemToAdd): void&lt;br&gt;+&amp;nbsp;RemoveItem(Item itemToRemove, int quantity = 1): void" style="text;strokeColor=none;fillColor=none;align=left;verticalAlign=top;spacingLeft=4;spacingRight=4;overflow=hidden;rotatable=0;points=[[0,0.5],[1,0.5]];portConstraint=eastwest;whiteSpace=wrap;html=1;" parent="fnEIgWAX-s85td7BNk4T-10" vertex="1">
          <mxGeometry y="58" width="360" height="62" as="geometry" />
        </mxCell>
        <mxCell id="fnEIgWAX-s85td7BNk4T-21" value="Location" style="swimlane;fontStyle=1;align=center;verticalAlign=top;childLayout=stackLayout;horizontal=1;startSize=26;horizontalStack=0;resizeParent=1;resizeParentMax=0;resizeLast=0;collapsible=1;marginBottom=0;whiteSpace=wrap;html=1;" parent="1" vertex="1">
          <mxGeometry x="40" y="480" width="640" height="220" as="geometry" />
        </mxCell>
        <mxCell id="fnEIgWAX-s85td7BNk4T-22" value="+ ID: int&lt;br&gt;+ Name: string&lt;br&gt;+ Description: string&lt;br&gt;+&amp;nbsp;RequiredItemToEnter: Item&lt;br&gt;+&amp;nbsp;QuestAvailableHere: Quest&lt;br&gt;+&amp;nbsp;LocationToNorth: Location&lt;br&gt;+&amp;nbsp;LocationToEast: Location&lt;br&gt;+&amp;nbsp;LocationToSouth: Location&lt;br&gt;+&amp;nbsp;LocationToWest: Location" style="text;strokeColor=none;fillColor=none;align=left;verticalAlign=top;spacingLeft=4;spacingRight=4;overflow=hidden;rotatable=0;points=[[0,0.5],[1,0.5]];portConstraint=eastwest;whiteSpace=wrap;html=1;" parent="fnEIgWAX-s85td7BNk4T-21" vertex="1">
          <mxGeometry y="26" width="640" height="144" as="geometry" />
        </mxCell>
        <mxCell id="fnEIgWAX-s85td7BNk4T-23" value="" style="line;strokeWidth=1;fillColor=none;align=left;verticalAlign=middle;spacingTop=-1;spacingLeft=3;spacingRight=3;rotatable=0;labelPosition=right;points=[];portConstraint=eastwest;strokeColor=inherit;" parent="fnEIgWAX-s85td7BNk4T-21" vertex="1">
          <mxGeometry y="170" width="640" height="8" as="geometry" />
        </mxCell>
        <mxCell id="fnEIgWAX-s85td7BNk4T-24" value="+ Location(int id, string name, string description, itemRequiredItemToEnter = null, Quest QuestAvailableHere = null)&lt;br&gt;+ PlayerHasRequiredItemToEnter(Player player): bool" style="text;strokeColor=none;fillColor=none;align=left;verticalAlign=top;spacingLeft=4;spacingRight=4;overflow=hidden;rotatable=0;points=[[0,0.5],[1,0.5]];portConstraint=eastwest;whiteSpace=wrap;html=1;" parent="fnEIgWAX-s85td7BNk4T-21" vertex="1">
          <mxGeometry y="178" width="640" height="42" as="geometry" />
        </mxCell>
        <mxCell id="fnEIgWAX-s85td7BNk4T-29" value="Quest" style="swimlane;fontStyle=1;align=center;verticalAlign=top;childLayout=stackLayout;horizontal=1;startSize=26;horizontalStack=0;resizeParent=1;resizeParentMax=0;resizeLast=0;collapsible=1;marginBottom=0;whiteSpace=wrap;html=1;" parent="1" vertex="1">
          <mxGeometry x="40" y="1180" width="600" height="270" as="geometry" />
        </mxCell>
        <mxCell id="fnEIgWAX-s85td7BNk4T-30" value="+ ID: int&lt;br&gt;+ Name: string&lt;br&gt;+ Description: string&lt;br&gt;+ RewardGold: int&lt;br&gt;+ RewardExperiencePoints: int&lt;br&gt;+ RewardItem: Item&lt;br&gt;+ CompletionItems: List&amp;lt;QuestCompletionItem&amp;gt;&lt;br&gt;+ IsCompleted: bool" style="text;strokeColor=none;fillColor=none;align=left;verticalAlign=top;spacingLeft=4;spacingRight=4;overflow=hidden;rotatable=0;points=[[0,0.5],[1,0.5]];portConstraint=eastwest;whiteSpace=wrap;html=1;" parent="fnEIgWAX-s85td7BNk4T-29" vertex="1">
          <mxGeometry y="26" width="600" height="134" as="geometry" />
        </mxCell>
        <mxCell id="fnEIgWAX-s85td7BNk4T-31" value="" style="line;strokeWidth=1;fillColor=none;align=left;verticalAlign=middle;spacingTop=-1;spacingLeft=3;spacingRight=3;rotatable=0;labelPosition=right;points=[];portConstraint=eastwest;strokeColor=inherit;" parent="fnEIgWAX-s85td7BNk4T-29" vertex="1">
          <mxGeometry y="160" width="600" height="8" as="geometry" />
        </mxCell>
        <mxCell id="fnEIgWAX-s85td7BNk4T-32" value="+ Quest(int id, string name, string description, int rewardGold, int rewardExperiencePoints, bool isCompleted)&lt;br&gt;+ IsActiveForPlayer(Player player): bool&lt;br&gt;+ IsCompletedByPlayer(Player player): bool&lt;br&gt;+&amp;nbsp;PlayerHasCompletionItems(Player player): bool&lt;br&gt;+&amp;nbsp;MarkQuestAsCompleted(): void&lt;br&gt;+&amp;nbsp;RemoveCompletionItemsFromPlayerInventory(Player player): void" style="text;strokeColor=none;fillColor=none;align=left;verticalAlign=top;spacingLeft=4;spacingRight=4;overflow=hidden;rotatable=0;points=[[0,0.5],[1,0.5]];portConstraint=eastwest;whiteSpace=wrap;html=1;" parent="fnEIgWAX-s85td7BNk4T-29" vertex="1">
          <mxGeometry y="168" width="600" height="102" as="geometry" />
        </mxCell>
        <mxCell id="fnEIgWAX-s85td7BNk4T-50" value="&lt;u&gt;BasicUtilities&lt;/u&gt;" style="swimlane;fontStyle=1;align=center;verticalAlign=top;childLayout=stackLayout;horizontal=1;startSize=26;horizontalStack=0;resizeParent=1;resizeParentMax=0;resizeLast=0;collapsible=1;marginBottom=0;whiteSpace=wrap;html=1;" parent="1" vertex="1">
          <mxGeometry x="40" y="1480" width="480" height="100" as="geometry" />
        </mxCell>
        <mxCell id="fnEIgWAX-s85td7BNk4T-51" value="&lt;u&gt;- _randomNumberGenerator&lt;/u&gt;" style="text;strokeColor=none;fillColor=none;align=left;verticalAlign=top;spacingLeft=4;spacingRight=4;overflow=hidden;rotatable=0;points=[[0,0.5],[1,0.5]];portConstraint=eastwest;whiteSpace=wrap;html=1;" parent="fnEIgWAX-s85td7BNk4T-50" vertex="1">
          <mxGeometry y="26" width="480" height="24" as="geometry" />
        </mxCell>
        <mxCell id="fnEIgWAX-s85td7BNk4T-52" value="" style="line;strokeWidth=1;fillColor=none;align=left;verticalAlign=middle;spacingTop=-1;spacingLeft=3;spacingRight=3;rotatable=0;labelPosition=right;points=[];portConstraint=eastwest;strokeColor=inherit;" parent="fnEIgWAX-s85td7BNk4T-50" vertex="1">
          <mxGeometry y="50" width="480" height="8" as="geometry" />
        </mxCell>
        <mxCell id="fnEIgWAX-s85td7BNk4T-53" value="&lt;u&gt;+ GenerateNumberBetweenMinAndMax(int minimumValue, int maximumValue): int&lt;br&gt;+ DisplayDialog(string text, int textSpeed): void&lt;br&gt;&lt;/u&gt;" style="text;strokeColor=none;fillColor=none;align=left;verticalAlign=top;spacingLeft=4;spacingRight=4;overflow=hidden;rotatable=0;points=[[0,0.5],[1,0.5]];portConstraint=eastwest;whiteSpace=wrap;html=1;" parent="fnEIgWAX-s85td7BNk4T-50" vertex="1">
          <mxGeometry y="58" width="480" height="42" as="geometry" />
        </mxCell>
        <mxCell id="fnEIgWAX-s85td7BNk4T-54" value="&lt;u&gt;GameUtilities&lt;/u&gt;" style="swimlane;fontStyle=1;align=center;verticalAlign=top;childLayout=stackLayout;horizontal=1;startSize=26;horizontalStack=0;resizeParent=1;resizeParentMax=0;resizeLast=0;collapsible=1;marginBottom=0;whiteSpace=wrap;html=1;" parent="1" vertex="1">
          <mxGeometry x="40" y="1610" width="240" height="260" as="geometry" />
        </mxCell>
        <mxCell id="fnEIgWAX-s85td7BNk4T-55" value="&lt;u&gt;+ AllItems: List&amp;lt;Item&amp;gt;&lt;br&gt;+ AllQuests: List&amp;lt;Quest&amp;gt;&lt;br&gt;+ AllLocations: List&amp;lt;Location&amp;gt;&lt;br&gt;+ ItemID...: const int&lt;br&gt;+ QuestID...: const int&lt;br&gt;+ LocationID...: cont int&lt;/u&gt;" style="text;strokeColor=none;fillColor=none;align=left;verticalAlign=top;spacingLeft=4;spacingRight=4;overflow=hidden;rotatable=0;points=[[0,0.5],[1,0.5]];portConstraint=eastwest;whiteSpace=wrap;html=1;" parent="fnEIgWAX-s85td7BNk4T-54" vertex="1">
          <mxGeometry y="26" width="240" height="104" as="geometry" />
        </mxCell>
        <mxCell id="fnEIgWAX-s85td7BNk4T-56" value="" style="line;strokeWidth=1;fillColor=none;align=left;verticalAlign=middle;spacingTop=-1;spacingLeft=3;spacingRight=3;rotatable=0;labelPosition=right;points=[];portConstraint=eastwest;strokeColor=inherit;" parent="fnEIgWAX-s85td7BNk4T-54" vertex="1">
          <mxGeometry y="130" width="240" height="8" as="geometry" />
        </mxCell>
        <mxCell id="fnEIgWAX-s85td7BNk4T-57" value="+&amp;nbsp;&lt;span style=&quot;border-color: var(--border-color); text-align: center;&quot;&gt;GameUtilities()&lt;/span&gt;&lt;br&gt;&lt;u&gt;- PopulateListAllItems(): void&lt;/u&gt;&lt;br&gt;&lt;u&gt;- PopulateListAllQuests(): void&lt;/u&gt;&lt;br&gt;&lt;u&gt;- PopulateListAllLocations(): void&lt;/u&gt;&lt;br&gt;&lt;u&gt;+&amp;nbsp;GetItemByID(int id): Item&lt;/u&gt;&lt;br&gt;&lt;u&gt;+&amp;nbsp;GetQuestByID(int id): Quest&lt;/u&gt;&lt;br&gt;&lt;u&gt;+&amp;nbsp;GetLocationByID(int id): Location&lt;/u&gt;" style="text;strokeColor=none;fillColor=none;align=left;verticalAlign=top;spacingLeft=4;spacingRight=4;overflow=hidden;rotatable=0;points=[[0,0.5],[1,0.5]];portConstraint=eastwest;whiteSpace=wrap;html=1;" parent="fnEIgWAX-s85td7BNk4T-54" vertex="1">
          <mxGeometry y="138" width="240" height="122" as="geometry" />
        </mxCell>
        <mxCell id="fnEIgWAX-s85td7BNk4T-59" value="PlayerInventoryItem" style="swimlane;fontStyle=1;align=center;verticalAlign=top;childLayout=stackLayout;horizontal=1;startSize=26;horizontalStack=0;resizeParent=1;resizeParentMax=0;resizeLast=0;collapsible=1;marginBottom=0;whiteSpace=wrap;html=1;" parent="1" vertex="1">
          <mxGeometry x="40" y="900" width="280" height="110" as="geometry" />
        </mxCell>
        <mxCell id="fnEIgWAX-s85td7BNk4T-60" value="+ Details: Item&lt;br style=&quot;border-color: var(--border-color);&quot;&gt;+ Quantity: int" style="text;strokeColor=none;fillColor=none;align=left;verticalAlign=top;spacingLeft=4;spacingRight=4;overflow=hidden;rotatable=0;points=[[0,0.5],[1,0.5]];portConstraint=eastwest;whiteSpace=wrap;html=1;" parent="fnEIgWAX-s85td7BNk4T-59" vertex="1">
          <mxGeometry y="26" width="280" height="44" as="geometry" />
        </mxCell>
        <mxCell id="fnEIgWAX-s85td7BNk4T-61" value="" style="line;strokeWidth=1;fillColor=none;align=left;verticalAlign=middle;spacingTop=-1;spacingLeft=3;spacingRight=3;rotatable=0;labelPosition=right;points=[];portConstraint=eastwest;strokeColor=inherit;" parent="fnEIgWAX-s85td7BNk4T-59" vertex="1">
          <mxGeometry y="70" width="280" height="8" as="geometry" />
        </mxCell>
        <mxCell id="fnEIgWAX-s85td7BNk4T-62" value="+&amp;nbsp;PlayerInventoryItem(Item details, int quantity)" style="text;strokeColor=none;fillColor=none;align=left;verticalAlign=top;spacingLeft=4;spacingRight=4;overflow=hidden;rotatable=0;points=[[0,0.5],[1,0.5]];portConstraint=eastwest;whiteSpace=wrap;html=1;" parent="fnEIgWAX-s85td7BNk4T-59" vertex="1">
          <mxGeometry y="78" width="280" height="32" as="geometry" />
        </mxCell>
        <mxCell id="fnEIgWAX-s85td7BNk4T-63" value="QuestCompletionItem" style="swimlane;fontStyle=1;align=center;verticalAlign=top;childLayout=stackLayout;horizontal=1;startSize=26;horizontalStack=0;resizeParent=1;resizeParentMax=0;resizeLast=0;collapsible=1;marginBottom=0;whiteSpace=wrap;html=1;" parent="1" vertex="1">
          <mxGeometry x="40" y="1040" width="280" height="110" as="geometry" />
        </mxCell>
        <mxCell id="fnEIgWAX-s85td7BNk4T-64" value="+ Details: Item&lt;br style=&quot;border-color: var(--border-color);&quot;&gt;+ Quantity: int" style="text;strokeColor=none;fillColor=none;align=left;verticalAlign=top;spacingLeft=4;spacingRight=4;overflow=hidden;rotatable=0;points=[[0,0.5],[1,0.5]];portConstraint=eastwest;whiteSpace=wrap;html=1;" parent="fnEIgWAX-s85td7BNk4T-63" vertex="1">
          <mxGeometry y="26" width="280" height="44" as="geometry" />
        </mxCell>
        <mxCell id="fnEIgWAX-s85td7BNk4T-65" value="" style="line;strokeWidth=1;fillColor=none;align=left;verticalAlign=middle;spacingTop=-1;spacingLeft=3;spacingRight=3;rotatable=0;labelPosition=right;points=[];portConstraint=eastwest;strokeColor=inherit;" parent="fnEIgWAX-s85td7BNk4T-63" vertex="1">
          <mxGeometry y="70" width="280" height="8" as="geometry" />
        </mxCell>
        <mxCell id="fnEIgWAX-s85td7BNk4T-66" value="+&amp;nbsp;PlayerInventoryItem(Item details, int quantity)" style="text;strokeColor=none;fillColor=none;align=left;verticalAlign=top;spacingLeft=4;spacingRight=4;overflow=hidden;rotatable=0;points=[[0,0.5],[1,0.5]];portConstraint=eastwest;whiteSpace=wrap;html=1;" parent="fnEIgWAX-s85td7BNk4T-63" vertex="1">
          <mxGeometry y="78" width="280" height="32" as="geometry" />
        </mxCell>
        <mxCell id="fnEIgWAX-s85td7BNk4T-67" value="Item" style="swimlane;fontStyle=1;align=center;verticalAlign=top;childLayout=stackLayout;horizontal=1;startSize=26;horizontalStack=0;resizeParent=1;resizeParentMax=0;resizeLast=0;collapsible=1;marginBottom=0;whiteSpace=wrap;html=1;" parent="1" vertex="1">
          <mxGeometry x="40" y="730" width="360" height="140" as="geometry" />
        </mxCell>
        <mxCell id="fnEIgWAX-s85td7BNk4T-68" value="+ ID: int&lt;br style=&quot;border-color: var(--border-color);&quot;&gt;+ Name: string&lt;br style=&quot;border-color: var(--border-color);&quot;&gt;+ NamePlural: string&lt;br style=&quot;border-color: var(--border-color);&quot;&gt;+ Description: string" style="text;strokeColor=none;fillColor=none;align=left;verticalAlign=top;spacingLeft=4;spacingRight=4;overflow=hidden;rotatable=0;points=[[0,0.5],[1,0.5]];portConstraint=eastwest;whiteSpace=wrap;html=1;" parent="fnEIgWAX-s85td7BNk4T-67" vertex="1">
          <mxGeometry y="26" width="360" height="74" as="geometry" />
        </mxCell>
        <mxCell id="fnEIgWAX-s85td7BNk4T-69" value="" style="line;strokeWidth=1;fillColor=none;align=left;verticalAlign=middle;spacingTop=-1;spacingLeft=3;spacingRight=3;rotatable=0;labelPosition=right;points=[];portConstraint=eastwest;strokeColor=inherit;" parent="fnEIgWAX-s85td7BNk4T-67" vertex="1">
          <mxGeometry y="100" width="360" height="8" as="geometry" />
        </mxCell>
        <mxCell id="fnEIgWAX-s85td7BNk4T-70" value="+&amp;nbsp;Item(int id, string name, string namePlural, string description)" style="text;strokeColor=none;fillColor=none;align=left;verticalAlign=top;spacingLeft=4;spacingRight=4;overflow=hidden;rotatable=0;points=[[0,0.5],[1,0.5]];portConstraint=eastwest;whiteSpace=wrap;html=1;" parent="fnEIgWAX-s85td7BNk4T-67" vertex="1">
          <mxGeometry y="108" width="360" height="32" as="geometry" />
        </mxCell>
      </root>
    </mxGraphModel>
  </diagram>
</mxfile>
